<svg xmlns="http://www.w3.org/2000/svg" xmlns:xlink="http://www.w3.org/1999/xlink" width="40" zoomAndPan="magnify" viewBox="0 0 30 30.000001" height="40" preserveAspectRatio="xMidYMid meet" version="1.0"><defs><g/><clipPath id="6e4ffde679"><path d="M 4 6 L 14 6 L 14 20 L 4 20 Z M 4 6 " clip-rule="nonzero"/></clipPath><clipPath id="6a95e6bd10"><path d="M 0.484375 10.625 L 8.914062 4.957031 L 15.394531 14.59375 L 6.964844 20.261719 Z M 0.484375 10.625 " clip-rule="nonzero"/></clipPath><clipPath id="414d24369b"><path d="M 0.484375 10.625 L 8.914062 4.957031 L 15.394531 14.59375 L 6.964844 20.261719 Z M 0.484375 10.625 " clip-rule="nonzero"/></clipPath><clipPath id="9916df8f45"><path d="M 7 12 L 10 12 L 10 15 L 7 15 Z M 7 12 " clip-rule="nonzero"/></clipPath><clipPath id="2eee766e76"><path d="M 0.484375 10.625 L 8.914062 4.957031 L 15.394531 14.59375 L 6.964844 20.261719 Z M 0.484375 10.625 " clip-rule="nonzero"/></clipPath><clipPath id="cd48120e6d"><path d="M 0.484375 10.625 L 8.914062 4.957031 L 15.394531 14.59375 L 6.964844 20.261719 Z M 0.484375 10.625 " clip-rule="nonzero"/></clipPath><clipPath id="650d50d01b"><path d="M 8 14 L 9 14 L 9 16 L 8 16 Z M 8 14 " clip-rule="nonzero"/></clipPath><clipPath id="50ab8d5f7a"><path d="M 0.484375 10.625 L 8.914062 4.957031 L 15.394531 14.59375 L 6.964844 20.261719 Z M 0.484375 10.625 " clip-rule="nonzero"/></clipPath><clipPath id="c0cce04376"><path d="M 0.484375 10.625 L 8.914062 4.957031 L 15.394531 14.59375 L 6.964844 20.261719 Z M 0.484375 10.625 " clip-rule="nonzero"/></clipPath><clipPath id="3050c99343"><path d="M 9 12 L 11 12 L 11 13 L 9 13 Z M 9 12 " clip-rule="nonzero"/></clipPath><clipPath id="ee0f03e6b7"><path d="M 0.484375 10.625 L 8.914062 4.957031 L 15.394531 14.59375 L 6.964844 20.261719 Z M 0.484375 10.625 " clip-rule="nonzero"/></clipPath><clipPath id="83fd918534"><path d="M 0.484375 10.625 L 8.914062 4.957031 L 15.394531 14.59375 L 6.964844 20.261719 Z M 0.484375 10.625 " clip-rule="nonzero"/></clipPath></defs><g clip-path="url(#6e4ffde679)"><g clip-path="url(#6a95e6bd10)"><g clip-path="url(#414d24369b)"><path fill="#ff014f" d="M 7.246094 15.839844 C 7.082031 15.6875 7.054688 15.425781 7.195312 15.246094 L 7.628906 14.660156 L 7.332031 14.4375 C 6.636719 13.921875 6.492188 12.933594 7.007812 12.238281 C 7.527344 11.542969 8.515625 11.394531 9.210938 11.914062 L 9.507812 12.132812 L 9.945312 11.546875 C 10.082031 11.363281 10.335938 11.3125 10.53125 11.425781 L 13.683594 13.257812 L 11.035156 8.542969 C 10.878906 8.269531 10.546875 8.15625 10.257812 8.273438 L 9.335938 8.664062 L 9.140625 8.195312 C 8.675781 7.101562 7.414062 6.585938 6.316406 7.046875 C 5.222656 7.507812 4.707031 8.773438 5.167969 9.867188 L 5.363281 10.335938 L 4.445312 10.722656 C 4.152344 10.84375 4.003906 11.164062 4.089844 11.464844 L 6.335938 19.117188 C 6.445312 19.484375 6.847656 19.671875 7.199219 19.527344 L 9.945312 18.371094 Z M 9.695312 9.511719 C 9.753906 9.648438 9.6875 9.8125 9.550781 9.871094 C 9.410156 9.929688 9.25 9.863281 9.191406 9.722656 C 9.132812 9.582031 9.195312 9.421875 9.335938 9.363281 C 9.472656 9.304688 9.636719 9.371094 9.695312 9.511719 Z M 5.675781 9.65625 C 5.335938 8.839844 5.71875 7.898438 6.535156 7.554688 C 7.351562 7.207031 8.289062 7.59375 8.636719 8.410156 L 8.832031 8.878906 L 5.875 10.121094 Z M 5.871094 10.824219 C 6.011719 10.765625 6.171875 10.828125 6.230469 10.96875 C 6.289062 11.109375 6.222656 11.269531 6.082031 11.328125 C 5.945312 11.386719 5.78125 11.320312 5.722656 11.183594 C 5.664062 11.042969 5.730469 10.882812 5.871094 10.824219 Z M 5.871094 10.824219 " fill-opacity="1" fill-rule="nonzero"/></g></g></g><g clip-path="url(#9916df8f45)"><g clip-path="url(#2eee766e76)"><g clip-path="url(#cd48120e6d)"><path fill="#ff014f" d="M 8.96875 12.234375 C 8.453125 11.847656 7.714844 11.957031 7.332031 12.476562 C 6.945312 12.992188 7.050781 13.730469 7.574219 14.117188 L 7.871094 14.335938 L 9.269531 12.457031 Z M 8.96875 12.234375 " fill-opacity="1" fill-rule="nonzero"/></g></g></g><g clip-path="url(#650d50d01b)"><g clip-path="url(#50ab8d5f7a)"><g clip-path="url(#c0cce04376)"><path fill="#ff014f" d="M 8.128906 14.78125 C 8.0625 14.867188 8.078125 14.996094 8.171875 15.0625 C 8.257812 15.128906 8.382812 15.109375 8.449219 15.019531 C 8.515625 14.929688 8.5 14.804688 8.410156 14.738281 C 8.320312 14.671875 8.195312 14.691406 8.128906 14.78125 Z M 8.128906 14.78125 " fill-opacity="1" fill-rule="nonzero"/></g></g></g><g clip-path="url(#3050c99343)"><g clip-path="url(#ee0f03e6b7)"><g clip-path="url(#83fd918534)"><path fill="#ff014f" d="M 10.089844 12.816406 C 10.15625 12.726562 10.136719 12.601562 10.046875 12.535156 C 9.957031 12.46875 9.832031 12.488281 9.765625 12.578125 C 9.699219 12.667969 9.714844 12.792969 9.808594 12.859375 C 9.898438 12.921875 10.023438 12.90625 10.089844 12.816406 Z M 10.089844 12.816406 " fill-opacity="1" fill-rule="nonzero"/></g></g></g><g fill="#ffffff" fill-opacity="1"><g transform="translate(9.93863, 15.907125)"><g><path d="M 0.96875 0 L 0.609375 -1.28125 L 0.59375 -1.28125 C 0.613281 -1.0625 0.625 -0.894531 0.625 -0.78125 L 0.625 0 L 0.1875 0 L 0.1875 -1.78125 L 0.828125 -1.78125 L 1.203125 -0.515625 L 1.21875 -0.515625 L 1.578125 -1.78125 L 2.21875 -1.78125 L 2.21875 0 L 1.78125 0 L 1.78125 -0.78125 C 1.78125 -0.820312 1.78125 -0.867188 1.78125 -0.921875 C 1.78125 -0.972656 1.785156 -1.09375 1.796875 -1.28125 L 1.421875 0 Z M 0.96875 0 "/></g></g><g transform="translate(12.362023, 15.907125)"><g><path d="M 1.28125 0 L 1.203125 -0.328125 L 0.625 -0.328125 L 0.53125 0 L 0 0 L 0.578125 -1.796875 L 1.21875 -1.796875 L 1.8125 0 Z M 1.09375 -0.734375 L 1.015625 -1.015625 C 1.003906 -1.085938 0.984375 -1.175781 0.953125 -1.28125 C 0.929688 -1.382812 0.914062 -1.457031 0.90625 -1.5 C 0.894531 -1.457031 0.878906 -1.390625 0.859375 -1.296875 C 0.835938 -1.203125 0.789062 -1.015625 0.71875 -0.734375 Z M 1.09375 -0.734375 "/></g></g><g transform="translate(14.182016, 15.907125)"><g><path d="M 0.90625 -1.046875 L 1.6875 -1.046875 L 1.6875 -0.078125 C 1.46875 -0.00390625 1.234375 0.03125 0.984375 0.03125 C 0.710938 0.03125 0.5 -0.046875 0.34375 -0.203125 C 0.195312 -0.367188 0.125 -0.597656 0.125 -0.890625 C 0.125 -1.179688 0.207031 -1.40625 0.375 -1.5625 C 0.539062 -1.726562 0.769531 -1.8125 1.0625 -1.8125 C 1.175781 -1.8125 1.28125 -1.800781 1.375 -1.78125 C 1.476562 -1.757812 1.566406 -1.734375 1.640625 -1.703125 L 1.484375 -1.3125 C 1.359375 -1.382812 1.21875 -1.421875 1.0625 -1.421875 C 0.925781 -1.421875 0.816406 -1.375 0.734375 -1.28125 C 0.660156 -1.1875 0.625 -1.054688 0.625 -0.890625 C 0.625 -0.722656 0.65625 -0.59375 0.71875 -0.5 C 0.789062 -0.414062 0.894531 -0.375 1.03125 -0.375 C 1.101562 -0.375 1.171875 -0.378906 1.234375 -0.390625 L 1.234375 -0.671875 L 0.90625 -0.671875 Z M 0.90625 -1.046875 "/></g></g><g transform="translate(16.037503, 15.907125)"><g><path d="M 0.1875 0 L 0.1875 -1.78125 L 0.671875 -1.78125 L 0.671875 0 Z M 0.1875 0 "/></g></g></g><g fill="#ff014f" fill-opacity="1"><g transform="translate(16.910169, 15.907125)"><g><path d="M 0.984375 -1.421875 C 0.867188 -1.421875 0.78125 -1.375 0.71875 -1.28125 C 0.65625 -1.1875 0.625 -1.054688 0.625 -0.890625 C 0.625 -0.546875 0.753906 -0.375 1.015625 -0.375 C 1.097656 -0.375 1.175781 -0.382812 1.25 -0.40625 C 1.320312 -0.425781 1.394531 -0.453125 1.46875 -0.484375 L 1.46875 -0.078125 C 1.320312 -0.00390625 1.15625 0.03125 0.96875 0.03125 C 0.695312 0.03125 0.488281 -0.046875 0.34375 -0.203125 C 0.195312 -0.359375 0.125 -0.585938 0.125 -0.890625 C 0.125 -1.078125 0.15625 -1.238281 0.21875 -1.375 C 0.289062 -1.507812 0.394531 -1.613281 0.53125 -1.6875 C 0.664062 -1.769531 0.820312 -1.8125 1 -1.8125 C 1.1875 -1.8125 1.367188 -1.769531 1.546875 -1.6875 L 1.390625 -1.3125 C 1.328125 -1.332031 1.257812 -1.351562 1.1875 -1.375 C 1.125 -1.40625 1.054688 -1.421875 0.984375 -1.421875 Z M 0.984375 -1.421875 "/></g></g><g transform="translate(18.53678, 15.907125)"><g><path d="M 1.359375 -0.546875 C 1.359375 -0.429688 1.328125 -0.332031 1.265625 -0.25 C 1.210938 -0.164062 1.132812 -0.0976562 1.03125 -0.046875 C 0.925781 0.00390625 0.800781 0.03125 0.65625 0.03125 C 0.539062 0.03125 0.441406 0.0195312 0.359375 0 C 0.273438 -0.0195312 0.191406 -0.0507812 0.109375 -0.09375 L 0.109375 -0.515625 C 0.203125 -0.472656 0.296875 -0.4375 0.390625 -0.40625 C 0.492188 -0.382812 0.585938 -0.375 0.671875 -0.375 C 0.742188 -0.375 0.796875 -0.382812 0.828125 -0.40625 C 0.859375 -0.425781 0.875 -0.457031 0.875 -0.5 C 0.875 -0.519531 0.867188 -0.539062 0.859375 -0.5625 C 0.847656 -0.582031 0.828125 -0.597656 0.796875 -0.609375 C 0.765625 -0.628906 0.6875 -0.671875 0.5625 -0.734375 C 0.4375 -0.785156 0.34375 -0.835938 0.28125 -0.890625 C 0.226562 -0.941406 0.1875 -1 0.15625 -1.0625 C 0.132812 -1.125 0.125 -1.195312 0.125 -1.28125 C 0.125 -1.445312 0.179688 -1.578125 0.296875 -1.671875 C 0.421875 -1.765625 0.585938 -1.8125 0.796875 -1.8125 C 0.984375 -1.8125 1.171875 -1.769531 1.359375 -1.6875 L 1.21875 -1.3125 C 1.050781 -1.382812 0.90625 -1.421875 0.78125 -1.421875 C 0.71875 -1.421875 0.671875 -1.410156 0.640625 -1.390625 C 0.609375 -1.367188 0.59375 -1.34375 0.59375 -1.3125 C 0.59375 -1.269531 0.609375 -1.234375 0.640625 -1.203125 C 0.679688 -1.179688 0.785156 -1.132812 0.953125 -1.0625 C 1.109375 -0.988281 1.210938 -0.910156 1.265625 -0.828125 C 1.328125 -0.753906 1.359375 -0.660156 1.359375 -0.546875 Z M 1.359375 -0.546875 "/></g></g></g><g fill="#ffffff" fill-opacity="1"><g transform="translate(19.984696, 15.907125)"><g><path d="M 1.71875 0 L 1.234375 0 L 1.234375 -0.734375 L 0.671875 -0.734375 L 0.671875 0 L 0.1875 0 L 0.1875 -1.78125 L 0.671875 -1.78125 L 0.671875 -1.125 L 1.234375 -1.125 L 1.234375 -1.78125 L 1.71875 -1.78125 Z M 1.71875 0 "/></g></g><g transform="translate(21.905051, 15.907125)"><g><path d="M 1.859375 -0.890625 C 1.859375 -0.585938 1.785156 -0.359375 1.640625 -0.203125 C 1.492188 -0.046875 1.28125 0.03125 1 0.03125 C 0.71875 0.03125 0.5 -0.046875 0.34375 -0.203125 C 0.195312 -0.367188 0.125 -0.597656 0.125 -0.890625 C 0.125 -1.191406 0.195312 -1.421875 0.34375 -1.578125 C 0.5 -1.734375 0.71875 -1.8125 1 -1.8125 C 1.28125 -1.8125 1.492188 -1.734375 1.640625 -1.578125 C 1.785156 -1.421875 1.859375 -1.191406 1.859375 -0.890625 Z M 0.640625 -0.890625 C 0.640625 -0.546875 0.757812 -0.375 1 -0.375 C 1.113281 -0.375 1.203125 -0.414062 1.265625 -0.5 C 1.328125 -0.582031 1.359375 -0.710938 1.359375 -0.890625 C 1.359375 -1.066406 1.328125 -1.195312 1.265625 -1.28125 C 1.203125 -1.375 1.113281 -1.421875 1 -1.421875 C 0.757812 -1.421875 0.640625 -1.242188 0.640625 -0.890625 Z M 0.640625 -0.890625 "/></g></g><g transform="translate(23.902515, 15.907125)"><g><path d="M 1.484375 -1.21875 C 1.484375 -1.019531 1.425781 -0.863281 1.3125 -0.75 C 1.195312 -0.644531 1.03125 -0.59375 0.8125 -0.59375 L 0.671875 -0.59375 L 0.671875 0 L 0.1875 0 L 0.1875 -1.78125 L 0.8125 -1.78125 C 1.039062 -1.78125 1.207031 -1.726562 1.3125 -1.625 C 1.425781 -1.53125 1.484375 -1.394531 1.484375 -1.21875 Z M 0.671875 -0.984375 L 0.765625 -0.984375 C 0.835938 -0.984375 0.894531 -1.003906 0.9375 -1.046875 C 0.976562 -1.085938 1 -1.144531 1 -1.21875 C 1 -1.332031 0.929688 -1.390625 0.796875 -1.390625 L 0.671875 -1.390625 Z M 0.671875 -0.984375 "/></g></g></g><g fill="#ffffff" fill-opacity="1"><g transform="translate(11.178007, 18.176554)"><g><path d="M 0.25 -1.03125 C 0.375 -1.15625 0.523438 -1.21875 0.703125 -1.21875 C 0.878906 -1.21875 1.03125 -1.15625 1.15625 -1.03125 C 1.28125 -0.914062 1.34375 -0.769531 1.34375 -0.59375 C 1.34375 -0.425781 1.28125 -0.28125 1.15625 -0.15625 C 1.03125 -0.0390625 0.878906 0.015625 0.703125 0.015625 C 0.523438 0.015625 0.375 -0.0390625 0.25 -0.15625 C 0.125 -0.28125 0.0625 -0.425781 0.0625 -0.59375 C 0.0625 -0.769531 0.125 -0.914062 0.25 -1.03125 Z M 0.703125 -1.03125 C 0.585938 -1.03125 0.484375 -0.988281 0.390625 -0.90625 C 0.304688 -0.820312 0.265625 -0.71875 0.265625 -0.59375 C 0.265625 -0.476562 0.304688 -0.378906 0.390625 -0.296875 C 0.484375 -0.210938 0.585938 -0.171875 0.703125 -0.171875 C 0.816406 -0.171875 0.914062 -0.210938 1 -0.296875 C 1.09375 -0.378906 1.140625 -0.476562 1.140625 -0.59375 C 1.140625 -0.71875 1.09375 -0.820312 1 -0.90625 C 0.914062 -0.988281 0.816406 -1.03125 0.703125 -1.03125 Z M 0.703125 -1.03125 "/></g></g></g><g fill="#ffffff" fill-opacity="1"><g transform="translate(12.582954, 18.176554)"><g><path d="M 1.21875 0 L 1.015625 0 L 0.359375 -0.875 L 0.359375 0 L 0.15625 0 L 0.15625 -1.21875 L 0.359375 -1.21875 L 1.015625 -0.34375 L 1.015625 -1.21875 L 1.21875 -1.21875 Z M 1.21875 0 "/></g></g></g><g fill="#ffffff" fill-opacity="1"><g transform="translate(13.956682, 18.176554)"><g><path d="M 0.359375 -0.1875 L 0.890625 -0.1875 L 0.890625 0 L 0.15625 0 L 0.15625 -1.21875 L 0.359375 -1.21875 Z M 0.359375 -0.1875 "/></g></g></g><g fill="#ffffff" fill-opacity="1"><g transform="translate(14.882907, 18.176554)"><g><path d="M 0.359375 0 L 0.15625 0 L 0.15625 -1.21875 L 0.359375 -1.21875 Z M 0.359375 0 "/></g></g></g><g fill="#ffffff" fill-opacity="1"><g transform="translate(15.406727, 18.176554)"><g><path d="M 1.21875 0 L 1.015625 0 L 0.359375 -0.875 L 0.359375 0 L 0.15625 0 L 0.15625 -1.21875 L 0.359375 -1.21875 L 1.015625 -0.34375 L 1.015625 -1.21875 L 1.21875 -1.21875 Z M 1.21875 0 "/></g></g></g><g fill="#ffffff" fill-opacity="1"><g transform="translate(16.780455, 18.176554)"><g><path d="M 1.03125 -1.03125 L 0.359375 -1.03125 L 0.359375 -0.703125 L 0.953125 -0.703125 L 0.953125 -0.515625 L 0.359375 -0.515625 L 0.359375 -0.1875 L 1.046875 -0.1875 L 1.046875 0 L 0.15625 0 L 0.15625 -1.21875 L 1.03125 -1.21875 Z M 1.03125 -1.03125 "/></g></g></g><g fill="#ffffff" fill-opacity="1"><g transform="translate(17.918289, 18.176554)"><g/></g></g><g fill="#ffffff" fill-opacity="1"><g transform="translate(18.365792, 18.176554)"><g><path d="M 0.5625 -1.21875 C 0.71875 -1.21875 0.859375 -1.175781 0.984375 -1.09375 L 0.890625 -0.921875 C 0.773438 -0.992188 0.660156 -1.03125 0.546875 -1.03125 C 0.484375 -1.03125 0.429688 -1.019531 0.390625 -1 C 0.359375 -0.976562 0.34375 -0.945312 0.34375 -0.90625 C 0.34375 -0.863281 0.359375 -0.828125 0.390625 -0.796875 C 0.421875 -0.773438 0.460938 -0.753906 0.515625 -0.734375 C 0.566406 -0.722656 0.617188 -0.707031 0.671875 -0.6875 C 0.734375 -0.664062 0.785156 -0.644531 0.828125 -0.625 C 0.878906 -0.601562 0.921875 -0.566406 0.953125 -0.515625 C 0.984375 -0.472656 1 -0.414062 1 -0.34375 C 1 -0.238281 0.957031 -0.15625 0.875 -0.09375 C 0.789062 -0.03125 0.679688 0 0.546875 0 C 0.453125 0 0.359375 -0.015625 0.265625 -0.046875 C 0.179688 -0.078125 0.109375 -0.125 0.046875 -0.1875 L 0.140625 -0.359375 C 0.191406 -0.304688 0.253906 -0.265625 0.328125 -0.234375 C 0.410156 -0.203125 0.484375 -0.1875 0.546875 -0.1875 C 0.617188 -0.1875 0.671875 -0.195312 0.703125 -0.21875 C 0.742188 -0.25 0.765625 -0.285156 0.765625 -0.328125 C 0.765625 -0.367188 0.75 -0.40625 0.71875 -0.4375 C 0.6875 -0.46875 0.644531 -0.488281 0.59375 -0.5 C 0.550781 -0.507812 0.5 -0.523438 0.4375 -0.546875 C 0.382812 -0.566406 0.332031 -0.585938 0.28125 -0.609375 C 0.238281 -0.628906 0.195312 -0.660156 0.15625 -0.703125 C 0.125 -0.753906 0.109375 -0.816406 0.109375 -0.890625 C 0.109375 -0.984375 0.148438 -1.0625 0.234375 -1.125 C 0.316406 -1.1875 0.425781 -1.21875 0.5625 -1.21875 Z M 0.5625 -1.21875 "/></g></g></g><g fill="#ffffff" fill-opacity="1"><g transform="translate(19.444653, 18.176554)"><g><path d="M 0.984375 -1.03125 L 0.609375 -1.03125 L 0.609375 0 L 0.40625 0 L 0.40625 -1.03125 L 0.015625 -1.03125 L 0.015625 -1.21875 L 0.984375 -1.21875 Z M 0.984375 -1.03125 "/></g></g></g><g fill="#ffffff" fill-opacity="1"><g transform="translate(20.44893, 18.176554)"><g><path d="M 0.25 -1.03125 C 0.375 -1.15625 0.523438 -1.21875 0.703125 -1.21875 C 0.878906 -1.21875 1.03125 -1.15625 1.15625 -1.03125 C 1.28125 -0.914062 1.34375 -0.769531 1.34375 -0.59375 C 1.34375 -0.425781 1.28125 -0.28125 1.15625 -0.15625 C 1.03125 -0.0390625 0.878906 0.015625 0.703125 0.015625 C 0.523438 0.015625 0.375 -0.0390625 0.25 -0.15625 C 0.125 -0.28125 0.0625 -0.425781 0.0625 -0.59375 C 0.0625 -0.769531 0.125 -0.914062 0.25 -1.03125 Z M 0.703125 -1.03125 C 0.585938 -1.03125 0.484375 -0.988281 0.390625 -0.90625 C 0.304688 -0.820312 0.265625 -0.71875 0.265625 -0.59375 C 0.265625 -0.476562 0.304688 -0.378906 0.390625 -0.296875 C 0.484375 -0.210938 0.585938 -0.171875 0.703125 -0.171875 C 0.816406 -0.171875 0.914062 -0.210938 1 -0.296875 C 1.09375 -0.378906 1.140625 -0.476562 1.140625 -0.59375 C 1.140625 -0.71875 1.09375 -0.820312 1 -0.90625 C 0.914062 -0.988281 0.816406 -1.03125 0.703125 -1.03125 Z M 0.703125 -1.03125 "/></g></g></g><g fill="#ffffff" fill-opacity="1"><g transform="translate(21.853877, 18.176554)"><g><path d="M 0.921875 0 L 0.703125 -0.375 C 0.691406 -0.363281 0.675781 -0.359375 0.65625 -0.359375 L 0.359375 -0.359375 L 0.359375 0 L 0.15625 0 L 0.15625 -1.21875 L 0.65625 -1.21875 C 0.8125 -1.21875 0.929688 -1.179688 1.015625 -1.109375 C 1.097656 -1.035156 1.140625 -0.929688 1.140625 -0.796875 C 1.140625 -0.703125 1.117188 -0.617188 1.078125 -0.546875 C 1.035156 -0.484375 0.972656 -0.4375 0.890625 -0.40625 L 1.15625 0 Z M 0.359375 -0.546875 L 0.65625 -0.546875 C 0.851562 -0.546875 0.953125 -0.628906 0.953125 -0.796875 C 0.953125 -0.953125 0.851562 -1.03125 0.65625 -1.03125 L 0.359375 -1.03125 Z M 0.359375 -0.546875 "/></g></g></g><g fill="#ffffff" fill-opacity="1"><g transform="translate(23.107922, 18.176554)"><g><path d="M 1.03125 -1.03125 L 0.359375 -1.03125 L 0.359375 -0.703125 L 0.953125 -0.703125 L 0.953125 -0.515625 L 0.359375 -0.515625 L 0.359375 -0.1875 L 1.046875 -0.1875 L 1.046875 0 L 0.15625 0 L 0.15625 -1.21875 L 1.03125 -1.21875 Z M 1.03125 -1.03125 "/></g></g></g></svg>