<svg xmlns="http://www.w3.org/2000/svg" xmlns:xlink="http://www.w3.org/1999/xlink" width="40" zoomAndPan="magnify" viewBox="0 0 30 30.000001" height="40" preserveAspectRatio="xMidYMid meet" version="1.0"><defs><g/><clipPath id="c0d2a38779"><path d="M 4 7 L 15 7 L 15 22 L 4 22 Z M 4 7 " clip-rule="nonzero"/></clipPath><clipPath id="f2902a9728"><path d="M 0.488281 11.726562 L 8.917969 6.058594 L 15.804688 16.296875 L 7.371094 21.96875 Z M 0.488281 11.726562 " clip-rule="nonzero"/></clipPath><clipPath id="2c1fa71d0f"><path d="M 0.488281 11.726562 L 8.917969 6.058594 L 15.804688 16.296875 L 7.371094 21.96875 Z M 0.488281 11.726562 " clip-rule="nonzero"/></clipPath><clipPath id="9fdf626540"><path d="M 7 13 L 10 13 L 10 16 L 7 16 Z M 7 13 " clip-rule="nonzero"/></clipPath><clipPath id="6d316b4553"><path d="M 0.488281 11.726562 L 8.917969 6.058594 L 15.804688 16.296875 L 7.371094 21.96875 Z M 0.488281 11.726562 " clip-rule="nonzero"/></clipPath><clipPath id="e6caed1c1b"><path d="M 0.488281 11.726562 L 8.917969 6.058594 L 15.804688 16.296875 L 7.371094 21.96875 Z M 0.488281 11.726562 " clip-rule="nonzero"/></clipPath><clipPath id="b110b071f5"><path d="M 8 15 L 9 15 L 9 17 L 8 17 Z M 8 15 " clip-rule="nonzero"/></clipPath><clipPath id="0519aa996c"><path d="M 0.488281 11.726562 L 8.917969 6.058594 L 15.804688 16.296875 L 7.371094 21.96875 Z M 0.488281 11.726562 " clip-rule="nonzero"/></clipPath><clipPath id="f4e7bdafca"><path d="M 0.488281 11.726562 L 8.917969 6.058594 L 15.804688 16.296875 L 7.371094 21.96875 Z M 0.488281 11.726562 " clip-rule="nonzero"/></clipPath><clipPath id="e858c4e0f1"><path d="M 10 13 L 11 13 L 11 15 L 10 15 Z M 10 13 " clip-rule="nonzero"/></clipPath><clipPath id="cb90e454c7"><path d="M 0.488281 11.726562 L 8.917969 6.058594 L 15.804688 16.296875 L 7.371094 21.96875 Z M 0.488281 11.726562 " clip-rule="nonzero"/></clipPath><clipPath id="0025082152"><path d="M 0.488281 11.726562 L 8.917969 6.058594 L 15.804688 16.296875 L 7.371094 21.96875 Z M 0.488281 11.726562 " clip-rule="nonzero"/></clipPath></defs><g clip-path="url(#c0d2a38779)"><g clip-path="url(#f2902a9728)"><g clip-path="url(#2c1fa71d0f)"><path fill="#ff014f" d="M 7.53125 17.15625 C 7.355469 16.992188 7.332031 16.722656 7.476562 16.535156 L 7.929688 15.921875 L 7.621094 15.691406 C 6.894531 15.152344 6.742188 14.125 7.28125 13.398438 C 7.824219 12.675781 8.851562 12.523438 9.578125 13.0625 L 9.886719 13.292969 L 10.339844 12.679688 C 10.484375 12.488281 10.75 12.433594 10.953125 12.554688 L 14.242188 14.464844 L 11.476562 9.546875 C 11.316406 9.261719 10.96875 9.144531 10.667969 9.269531 L 9.710938 9.671875 L 9.503906 9.1875 C 9.023438 8.046875 7.703125 7.507812 6.5625 7.988281 C 5.417969 8.46875 4.882812 9.785156 5.363281 10.929688 L 5.566406 11.417969 L 4.609375 11.820312 C 4.308594 11.949219 4.148438 12.28125 4.242188 12.59375 L 6.582031 20.570312 C 6.695312 20.949219 7.113281 21.148438 7.480469 20.996094 L 10.34375 19.792969 Z M 10.082031 10.558594 C 10.144531 10.703125 10.074219 10.871094 9.929688 10.929688 C 9.785156 10.992188 9.617188 10.925781 9.554688 10.777344 C 9.496094 10.632812 9.5625 10.464844 9.707031 10.402344 C 9.851562 10.34375 10.019531 10.410156 10.082031 10.558594 Z M 5.894531 10.707031 C 5.539062 9.859375 5.9375 8.878906 6.789062 8.515625 C 7.636719 8.15625 8.617188 8.558594 8.976562 9.410156 L 9.183594 9.898438 L 6.101562 11.195312 Z M 6.097656 11.925781 C 6.242188 11.863281 6.410156 11.933594 6.46875 12.078125 C 6.53125 12.222656 6.464844 12.390625 6.316406 12.453125 C 6.171875 12.511719 6.003906 12.445312 5.945312 12.300781 C 5.878906 12.15625 5.949219 11.988281 6.097656 11.925781 Z M 6.097656 11.925781 " fill-opacity="1" fill-rule="nonzero"/></g></g></g><g clip-path="url(#9fdf626540)"><g clip-path="url(#6d316b4553)"><g clip-path="url(#e6caed1c1b)"><path fill="#ff014f" d="M 9.328125 13.398438 C 8.789062 12.996094 8.019531 13.105469 7.617188 13.648438 C 7.214844 14.1875 7.328125 14.957031 7.871094 15.359375 L 8.179688 15.585938 L 9.636719 13.628906 Z M 9.328125 13.398438 " fill-opacity="1" fill-rule="nonzero"/></g></g></g><g clip-path="url(#b110b071f5)"><g clip-path="url(#0519aa996c)"><g clip-path="url(#f4e7bdafca)"><path fill="#ff014f" d="M 8.449219 16.050781 C 8.378906 16.140625 8.398438 16.273438 8.492188 16.34375 C 8.585938 16.410156 8.714844 16.394531 8.785156 16.296875 C 8.855469 16.207031 8.835938 16.074219 8.742188 16.003906 C 8.648438 15.9375 8.519531 15.953125 8.449219 16.050781 Z M 8.449219 16.050781 " fill-opacity="1" fill-rule="nonzero"/></g></g></g><g clip-path="url(#e858c4e0f1)"><g clip-path="url(#cb90e454c7)"><g clip-path="url(#0025082152)"><path fill="#ff014f" d="M 10.492188 14.003906 C 10.5625 13.910156 10.542969 13.777344 10.449219 13.710938 C 10.355469 13.640625 10.222656 13.660156 10.15625 13.753906 C 10.085938 13.847656 10.105469 13.976562 10.199219 14.046875 C 10.292969 14.113281 10.425781 14.09375 10.492188 14.003906 Z M 10.492188 14.003906 " fill-opacity="1" fill-rule="nonzero"/></g></g></g><g fill="#000000" fill-opacity="1"><g transform="translate(10.333889, 17.344596)"><g><path d="M 1.015625 0 L 0.625 -1.34375 C 0.632812 -1.113281 0.640625 -0.9375 0.640625 -0.8125 L 0.640625 0 L 0.203125 0 L 0.203125 -1.859375 L 0.875 -1.859375 L 1.265625 -0.546875 L 1.65625 -1.859375 L 2.328125 -1.859375 L 2.328125 0 L 1.859375 0 L 1.859375 -0.8125 C 1.859375 -0.851562 1.859375 -0.898438 1.859375 -0.953125 C 1.859375 -1.003906 1.863281 -1.132812 1.875 -1.34375 L 1.484375 0 Z M 1.015625 0 "/></g></g></g><g fill="#000000" fill-opacity="1"><g transform="translate(12.856501, 17.344596)"><g><path d="M 1.34375 0 L 1.25 -0.34375 L 0.640625 -0.34375 L 0.546875 0 L 0 0 L 0.609375 -1.875 L 1.28125 -1.875 L 1.890625 0 Z M 1.140625 -0.765625 L 1.0625 -1.0625 C 1.050781 -1.132812 1.03125 -1.222656 1 -1.328125 C 0.96875 -1.441406 0.953125 -1.519531 0.953125 -1.5625 C 0.941406 -1.519531 0.925781 -1.445312 0.90625 -1.34375 C 0.882812 -1.25 0.832031 -1.054688 0.75 -0.765625 Z M 1.140625 -0.765625 "/></g></g></g><g fill="#000000" fill-opacity="1"><g transform="translate(14.751008, 17.344596)"><g><path d="M 0.953125 -1.09375 L 1.75 -1.09375 L 1.75 -0.09375 C 1.53125 -0.0078125 1.289062 0.03125 1.03125 0.03125 C 0.75 0.03125 0.523438 -0.0507812 0.359375 -0.21875 C 0.203125 -0.382812 0.125 -0.625 0.125 -0.9375 C 0.125 -1.238281 0.207031 -1.472656 0.375 -1.640625 C 0.550781 -1.804688 0.796875 -1.890625 1.109375 -1.890625 C 1.222656 -1.890625 1.332031 -1.878906 1.4375 -1.859375 C 1.539062 -1.835938 1.632812 -1.804688 1.71875 -1.765625 L 1.5625 -1.375 C 1.425781 -1.445312 1.273438 -1.484375 1.109375 -1.484375 C 0.960938 -1.484375 0.847656 -1.429688 0.765625 -1.328125 C 0.691406 -1.234375 0.65625 -1.097656 0.65625 -0.921875 C 0.65625 -0.742188 0.691406 -0.609375 0.765625 -0.515625 C 0.835938 -0.429688 0.941406 -0.390625 1.078125 -0.390625 C 1.148438 -0.390625 1.21875 -0.394531 1.28125 -0.40625 L 1.28125 -0.703125 L 0.953125 -0.703125 Z M 0.953125 -1.09375 "/></g></g></g><g fill="#000000" fill-opacity="1"><g transform="translate(16.682462, 17.344596)"><g><path d="M 0.203125 0 L 0.203125 -1.859375 L 0.703125 -1.859375 L 0.703125 0 Z M 0.203125 0 "/></g></g></g><g fill="#ff014f" fill-opacity="1"><g transform="translate(17.591746, 17.344596)"><g><path d="M 1.03125 -1.484375 C 0.90625 -1.484375 0.8125 -1.429688 0.75 -1.328125 C 0.6875 -1.234375 0.65625 -1.097656 0.65625 -0.921875 C 0.65625 -0.566406 0.789062 -0.390625 1.0625 -0.390625 C 1.144531 -0.390625 1.222656 -0.398438 1.296875 -0.421875 C 1.378906 -0.441406 1.457031 -0.46875 1.53125 -0.5 L 1.53125 -0.078125 C 1.375 -0.00390625 1.195312 0.03125 1 0.03125 C 0.71875 0.03125 0.5 -0.0507812 0.34375 -0.21875 C 0.195312 -0.382812 0.125 -0.617188 0.125 -0.921875 C 0.125 -1.117188 0.160156 -1.289062 0.234375 -1.4375 C 0.304688 -1.582031 0.410156 -1.691406 0.546875 -1.765625 C 0.691406 -1.847656 0.851562 -1.890625 1.03125 -1.890625 C 1.238281 -1.890625 1.429688 -1.847656 1.609375 -1.765625 L 1.453125 -1.359375 C 1.390625 -1.390625 1.320312 -1.414062 1.25 -1.4375 C 1.1875 -1.46875 1.113281 -1.484375 1.03125 -1.484375 Z M 1.03125 -1.484375 "/></g></g></g><g fill="#ff014f" fill-opacity="1"><g transform="translate(19.284953, 17.344596)"><g><path d="M 1.421875 -0.5625 C 1.421875 -0.445312 1.390625 -0.34375 1.328125 -0.25 C 1.273438 -0.164062 1.191406 -0.0976562 1.078125 -0.046875 C 0.960938 0.00390625 0.832031 0.03125 0.6875 0.03125 C 0.5625 0.03125 0.457031 0.0195312 0.375 0 C 0.289062 -0.0195312 0.203125 -0.0507812 0.109375 -0.09375 L 0.109375 -0.546875 C 0.210938 -0.492188 0.3125 -0.453125 0.40625 -0.421875 C 0.507812 -0.398438 0.609375 -0.390625 0.703125 -0.390625 C 0.773438 -0.390625 0.828125 -0.398438 0.859375 -0.421875 C 0.898438 -0.453125 0.921875 -0.484375 0.921875 -0.515625 C 0.921875 -0.546875 0.910156 -0.570312 0.890625 -0.59375 C 0.878906 -0.613281 0.859375 -0.628906 0.828125 -0.640625 C 0.796875 -0.660156 0.710938 -0.703125 0.578125 -0.765625 C 0.453125 -0.816406 0.359375 -0.867188 0.296875 -0.921875 C 0.242188 -0.972656 0.203125 -1.03125 0.171875 -1.09375 C 0.140625 -1.164062 0.125 -1.25 0.125 -1.34375 C 0.125 -1.507812 0.1875 -1.640625 0.3125 -1.734375 C 0.4375 -1.835938 0.609375 -1.890625 0.828125 -1.890625 C 1.023438 -1.890625 1.222656 -1.84375 1.421875 -1.75 L 1.265625 -1.359375 C 1.085938 -1.441406 0.9375 -1.484375 0.8125 -1.484375 C 0.75 -1.484375 0.703125 -1.472656 0.671875 -1.453125 C 0.640625 -1.429688 0.625 -1.398438 0.625 -1.359375 C 0.625 -1.328125 0.640625 -1.296875 0.671875 -1.265625 C 0.710938 -1.234375 0.816406 -1.179688 0.984375 -1.109375 C 1.148438 -1.035156 1.265625 -0.957031 1.328125 -0.875 C 1.390625 -0.789062 1.421875 -0.6875 1.421875 -0.5625 Z M 1.421875 -0.5625 "/></g></g></g><g fill="#000000" fill-opacity="1"><g transform="translate(20.792195, 17.344596)"><g><path d="M 1.796875 0 L 1.296875 0 L 1.296875 -0.765625 L 0.703125 -0.765625 L 0.703125 0 L 0.203125 0 L 0.203125 -1.859375 L 0.703125 -1.859375 L 0.703125 -1.171875 L 1.296875 -1.171875 L 1.296875 -1.859375 L 1.796875 -1.859375 Z M 1.796875 0 "/></g></g></g><g fill="#000000" fill-opacity="1"><g transform="translate(22.791174, 17.344596)"><g><path d="M 1.9375 -0.9375 C 1.9375 -0.625 1.859375 -0.382812 1.703125 -0.21875 C 1.554688 -0.0507812 1.332031 0.03125 1.03125 0.03125 C 0.738281 0.03125 0.515625 -0.0507812 0.359375 -0.21875 C 0.203125 -0.382812 0.125 -0.625 0.125 -0.9375 C 0.125 -1.25 0.203125 -1.484375 0.359375 -1.640625 C 0.515625 -1.804688 0.742188 -1.890625 1.046875 -1.890625 C 1.335938 -1.890625 1.554688 -1.804688 1.703125 -1.640625 C 1.859375 -1.484375 1.9375 -1.25 1.9375 -0.9375 Z M 0.65625 -0.9375 C 0.65625 -0.570312 0.78125 -0.390625 1.03125 -0.390625 C 1.164062 -0.390625 1.265625 -0.429688 1.328125 -0.515625 C 1.390625 -0.609375 1.421875 -0.75 1.421875 -0.9375 C 1.421875 -1.125 1.390625 -1.257812 1.328125 -1.34375 C 1.265625 -1.4375 1.171875 -1.484375 1.046875 -1.484375 C 0.785156 -1.484375 0.65625 -1.300781 0.65625 -0.9375 Z M 0.65625 -0.9375 "/></g></g></g><g fill="#000000" fill-opacity="1"><g transform="translate(24.870418, 17.344596)"><g><path d="M 1.546875 -1.265625 C 1.546875 -1.054688 1.484375 -0.894531 1.359375 -0.78125 C 1.242188 -0.675781 1.070312 -0.625 0.84375 -0.625 L 0.703125 -0.625 L 0.703125 0 L 0.203125 0 L 0.203125 -1.859375 L 0.84375 -1.859375 C 1.082031 -1.859375 1.257812 -1.804688 1.375 -1.703125 C 1.488281 -1.597656 1.546875 -1.453125 1.546875 -1.265625 Z M 0.703125 -1.03125 L 0.796875 -1.03125 C 0.867188 -1.03125 0.925781 -1.050781 0.96875 -1.09375 C 1.019531 -1.132812 1.046875 -1.191406 1.046875 -1.265625 C 1.046875 -1.390625 0.972656 -1.453125 0.828125 -1.453125 L 0.703125 -1.453125 Z M 0.703125 -1.03125 "/></g></g></g><g fill="#000000" fill-opacity="1"><g transform="translate(11.623132, 19.65922)"><g><path d="M 0.25 -1.09375 C 0.382812 -1.21875 0.546875 -1.28125 0.734375 -1.28125 C 0.921875 -1.28125 1.078125 -1.21875 1.203125 -1.09375 C 1.335938 -0.96875 1.40625 -0.8125 1.40625 -0.625 C 1.40625 -0.445312 1.335938 -0.296875 1.203125 -0.171875 C 1.078125 -0.046875 0.921875 0.015625 0.734375 0.015625 C 0.546875 0.015625 0.382812 -0.046875 0.25 -0.171875 C 0.125 -0.296875 0.0625 -0.445312 0.0625 -0.625 C 0.0625 -0.8125 0.125 -0.96875 0.25 -1.09375 Z M 0.734375 -1.078125 C 0.609375 -1.078125 0.5 -1.035156 0.40625 -0.953125 C 0.320312 -0.867188 0.28125 -0.765625 0.28125 -0.640625 C 0.28125 -0.515625 0.320312 -0.40625 0.40625 -0.3125 C 0.5 -0.226562 0.609375 -0.1875 0.734375 -0.1875 C 0.859375 -0.1875 0.960938 -0.226562 1.046875 -0.3125 C 1.140625 -0.40625 1.1875 -0.515625 1.1875 -0.640625 C 1.1875 -0.765625 1.140625 -0.867188 1.046875 -0.953125 C 0.960938 -1.035156 0.859375 -1.078125 0.734375 -1.078125 Z M 0.734375 -1.078125 "/></g></g></g><g fill="#000000" fill-opacity="1"><g transform="translate(13.085774, 19.65922)"><g><path d="M 1.265625 0 L 1.0625 0 L 0.375 -0.90625 L 0.375 0 L 0.171875 0 L 0.171875 -1.265625 L 0.375 -1.265625 L 1.0625 -0.359375 L 1.0625 -1.265625 L 1.265625 -1.265625 Z M 1.265625 0 "/></g></g></g><g fill="#000000" fill-opacity="1"><g transform="translate(14.515912, 19.65922)"><g><path d="M 0.375 -0.1875 L 0.9375 -0.1875 L 0.9375 0 L 0.171875 0 L 0.171875 -1.265625 L 0.375 -1.265625 Z M 0.375 -0.1875 "/></g></g></g><g fill="#000000" fill-opacity="1"><g transform="translate(15.480171, 19.65922)"><g><path d="M 0.375 0 L 0.171875 0 L 0.171875 -1.265625 L 0.375 -1.265625 Z M 0.375 0 "/></g></g></g><g fill="#000000" fill-opacity="1"><g transform="translate(16.025501, 19.65922)"><g><path d="M 1.265625 0 L 1.0625 0 L 0.375 -0.90625 L 0.375 0 L 0.171875 0 L 0.171875 -1.265625 L 0.375 -1.265625 L 1.0625 -0.359375 L 1.0625 -1.265625 L 1.265625 -1.265625 Z M 1.265625 0 "/></g></g></g><g fill="#000000" fill-opacity="1"><g transform="translate(17.45564, 19.65922)"><g><path d="M 1.078125 -1.078125 L 0.375 -1.078125 L 0.375 -0.734375 L 1 -0.734375 L 1 -0.546875 L 0.375 -0.546875 L 0.375 -0.1875 L 1.09375 -0.1875 L 1.09375 0 L 0.171875 0 L 0.171875 -1.265625 L 1.078125 -1.265625 Z M 1.078125 -1.078125 "/></g></g></g><g fill="#000000" fill-opacity="1"><g transform="translate(18.640199, 19.65922)"><g/></g></g><g fill="#000000" fill-opacity="1"><g transform="translate(19.106077, 19.65922)"><g><path d="M 0.578125 -1.28125 C 0.742188 -1.28125 0.894531 -1.234375 1.03125 -1.140625 L 0.9375 -0.953125 C 0.8125 -1.035156 0.6875 -1.078125 0.5625 -1.078125 C 0.5 -1.078125 0.445312 -1.0625 0.40625 -1.03125 C 0.375 -1.007812 0.359375 -0.976562 0.359375 -0.9375 C 0.359375 -0.894531 0.375 -0.859375 0.40625 -0.828125 C 0.445312 -0.804688 0.488281 -0.785156 0.53125 -0.765625 C 0.582031 -0.753906 0.640625 -0.738281 0.703125 -0.71875 C 0.765625 -0.695312 0.816406 -0.671875 0.859375 -0.640625 C 0.910156 -0.617188 0.953125 -0.582031 0.984375 -0.53125 C 1.023438 -0.488281 1.046875 -0.429688 1.046875 -0.359375 C 1.046875 -0.242188 1 -0.15625 0.90625 -0.09375 C 0.820312 -0.03125 0.707031 0 0.5625 0 C 0.46875 0 0.375 -0.015625 0.28125 -0.046875 C 0.195312 -0.078125 0.117188 -0.125 0.046875 -0.1875 L 0.140625 -0.375 C 0.203125 -0.320312 0.269531 -0.273438 0.34375 -0.234375 C 0.425781 -0.203125 0.5 -0.1875 0.5625 -0.1875 C 0.644531 -0.1875 0.707031 -0.203125 0.75 -0.234375 C 0.789062 -0.265625 0.8125 -0.300781 0.8125 -0.34375 C 0.8125 -0.382812 0.789062 -0.421875 0.75 -0.453125 C 0.71875 -0.484375 0.675781 -0.503906 0.625 -0.515625 C 0.570312 -0.535156 0.515625 -0.554688 0.453125 -0.578125 C 0.398438 -0.597656 0.347656 -0.617188 0.296875 -0.640625 C 0.242188 -0.660156 0.203125 -0.691406 0.171875 -0.734375 C 0.140625 -0.785156 0.125 -0.847656 0.125 -0.921875 C 0.125 -1.023438 0.164062 -1.109375 0.25 -1.171875 C 0.332031 -1.242188 0.441406 -1.28125 0.578125 -1.28125 Z M 0.578125 -1.28125 "/></g></g></g><g fill="#000000" fill-opacity="1"><g transform="translate(20.22924, 19.65922)"><g><path d="M 1.03125 -1.078125 L 0.625 -1.078125 L 0.625 0 L 0.421875 0 L 0.421875 -1.078125 L 0.015625 -1.078125 L 0.015625 -1.265625 L 1.03125 -1.265625 Z M 1.03125 -1.078125 "/></g></g></g><g fill="#000000" fill-opacity="1"><g transform="translate(21.274758, 19.65922)"><g><path d="M 0.25 -1.09375 C 0.382812 -1.21875 0.546875 -1.28125 0.734375 -1.28125 C 0.921875 -1.28125 1.078125 -1.21875 1.203125 -1.09375 C 1.335938 -0.96875 1.40625 -0.8125 1.40625 -0.625 C 1.40625 -0.445312 1.335938 -0.296875 1.203125 -0.171875 C 1.078125 -0.046875 0.921875 0.015625 0.734375 0.015625 C 0.546875 0.015625 0.382812 -0.046875 0.25 -0.171875 C 0.125 -0.296875 0.0625 -0.445312 0.0625 -0.625 C 0.0625 -0.8125 0.125 -0.96875 0.25 -1.09375 Z M 0.734375 -1.078125 C 0.609375 -1.078125 0.5 -1.035156 0.40625 -0.953125 C 0.320312 -0.867188 0.28125 -0.765625 0.28125 -0.640625 C 0.28125 -0.515625 0.320312 -0.40625 0.40625 -0.3125 C 0.5 -0.226562 0.609375 -0.1875 0.734375 -0.1875 C 0.859375 -0.1875 0.960938 -0.226562 1.046875 -0.3125 C 1.140625 -0.40625 1.1875 -0.515625 1.1875 -0.640625 C 1.1875 -0.765625 1.140625 -0.867188 1.046875 -0.953125 C 0.960938 -1.035156 0.859375 -1.078125 0.734375 -1.078125 Z M 0.734375 -1.078125 "/></g></g></g><g fill="#000000" fill-opacity="1"><g transform="translate(22.7374, 19.65922)"><g><path d="M 0.96875 0 L 0.734375 -0.390625 C 0.722656 -0.378906 0.707031 -0.375 0.6875 -0.375 L 0.375 -0.375 L 0.375 0 L 0.171875 0 L 0.171875 -1.265625 L 0.6875 -1.265625 C 0.84375 -1.265625 0.960938 -1.226562 1.046875 -1.15625 C 1.140625 -1.082031 1.1875 -0.972656 1.1875 -0.828125 C 1.1875 -0.734375 1.164062 -0.648438 1.125 -0.578125 C 1.082031 -0.503906 1.019531 -0.453125 0.9375 -0.421875 L 1.21875 0 Z M 0.375 -0.578125 L 0.6875 -0.578125 C 0.882812 -0.578125 0.984375 -0.660156 0.984375 -0.828125 C 0.984375 -0.992188 0.882812 -1.078125 0.6875 -1.078125 L 0.375 -1.078125 Z M 0.375 -0.578125 "/></g></g></g><g fill="#000000" fill-opacity="1"><g transform="translate(24.042943, 19.65922)"><g><path d="M 1.078125 -1.078125 L 0.375 -1.078125 L 0.375 -0.734375 L 1 -0.734375 L 1 -0.546875 L 0.375 -0.546875 L 0.375 -0.1875 L 1.09375 -0.1875 L 1.09375 0 L 0.171875 0 L 0.171875 -1.265625 L 1.078125 -1.265625 Z M 1.078125 -1.078125 "/></g></g></g></svg>